<svg width="54" height="54" viewBox="0 0 54 54" fill="none" xmlns="http://www.w3.org/2000/svg">
<circle cx="27" cy="27" r="27" fill="#cc0000"/>
<path d="M35.425 19.1512L35.015 22.1443C33.949 22.0623 33.17 22.2809 32.678 22.8003C32.186 23.3196 31.8854 24.0166 31.776 24.8913C31.6667 25.7659 31.6394 26.7089 31.694 27.7203H35.425V36.3713H28.414V26.0803C28.414 23.5656 29.0427 21.6796 30.3 20.4222C31.5847 19.1649 33.293 18.7412 35.425 19.1512ZM25.011 19.1512L24.601 22.1443C23.535 22.0623 22.756 22.2809 22.264 22.8003C21.772 23.3196 21.4713 24.0166 21.362 24.8913C21.2527 25.7659 21.2253 26.7089 21.28 27.7203H25.011V36.3713H18V26.0803C18 23.5656 18.6287 21.6796 19.886 20.4222C21.1707 19.1649 22.879 18.7412 25.011 19.1512Z" fill="white"/>
</svg>
