<svg width="152" height="24" viewBox="0 0 152 24" fill="none" xmlns="http://www.w3.org/2000/svg">
<path fill-rule="evenodd" clip-rule="evenodd" d="M11.4435 19.4783L7.1154 21.8562C6.53077 22.1774 5.80768 21.9425 5.50032 21.3316C5.37793 21.0883 5.3357 20.8096 5.38016 20.5387L6.20676 15.5023C6.2733 15.0969 6.14468 14.6833 5.86281 14.3961L2.36128 10.8294C1.88831 10.3476 1.87863 9.55634 2.33966 9.06208C2.52325 8.86526 2.7638 8.73717 3.02408 8.69765L7.86308 7.96285C8.25261 7.9037 8.58934 7.64804 8.76354 7.27918L10.9276 2.69694C11.2199 2.07799 11.937 1.82386 12.5293 2.12933C12.7652 2.25097 12.9561 2.45047 13.0725 2.69694L15.2365 7.27918C15.4107 7.64804 15.7475 7.9037 16.137 7.96285L20.976 8.69765C21.6296 8.7969 22.0825 9.43109 21.9875 10.1141C21.9497 10.3861 21.8271 10.6375 21.6388 10.8294L18.1373 14.3961C17.8554 14.6833 17.7268 15.0969 17.7933 15.5023L18.6199 20.5387C18.7316 21.219 18.2944 21.8651 17.6434 21.9818C17.3841 22.0282 17.1175 21.9841 16.8847 21.8562L12.5566 19.4783C12.2082 19.2869 11.7919 19.2869 11.4435 19.4783Z" fill="#F2994A"/>
<path fill-rule="evenodd" clip-rule="evenodd" d="M43.4435 19.4783L39.1154 21.8562C38.5308 22.1774 37.8077 21.9425 37.5003 21.3316C37.3779 21.0883 37.3357 20.8096 37.3802 20.5387L38.2068 15.5023C38.2733 15.0969 38.1447 14.6833 37.8628 14.3961L34.3613 10.8294C33.8883 10.3476 33.8786 9.55634 34.3397 9.06208C34.5233 8.86526 34.7638 8.73717 35.0241 8.69765L39.8631 7.96285C40.2526 7.9037 40.5893 7.64804 40.7635 7.27918L42.9276 2.69694C43.2199 2.07799 43.937 1.82386 44.5293 2.12933C44.7652 2.25097 44.9561 2.45047 45.0725 2.69694L47.2365 7.27918C47.4107 7.64804 47.7475 7.9037 48.137 7.96285L52.976 8.69765C53.6296 8.7969 54.0825 9.43109 53.9875 10.1141C53.9497 10.3861 53.8271 10.6375 53.6388 10.8294L50.1373 14.3961C49.8554 14.6833 49.7268 15.0969 49.7933 15.5023L50.6199 20.5387C50.7316 21.219 50.2944 21.8651 49.6434 21.9818C49.3841 22.0282 49.1175 21.9841 48.8847 21.8562L44.5566 19.4783C44.2082 19.2869 43.7919 19.2869 43.4435 19.4783Z" fill="#F2994A"/>
<path fill-rule="evenodd" clip-rule="evenodd" d="M75.4435 19.4783L71.1154 21.8562C70.5308 22.1774 69.8077 21.9425 69.5003 21.3316C69.3779 21.0883 69.3357 20.8096 69.3802 20.5387L70.2068 15.5023C70.2733 15.0969 70.1447 14.6833 69.8628 14.3961L66.3613 10.8294C65.8883 10.3476 65.8786 9.55634 66.3397 9.06208C66.5233 8.86526 66.7638 8.73717 67.0241 8.69765L71.8631 7.96285C72.2526 7.9037 72.5893 7.64804 72.7635 7.27918L74.9276 2.69694C75.2199 2.07799 75.937 1.82386 76.5293 2.12933C76.7652 2.25097 76.9561 2.45047 77.0725 2.69694L79.2365 7.27918C79.4107 7.64804 79.7475 7.9037 80.137 7.96285L84.976 8.69765C85.6296 8.7969 86.0825 9.43109 85.9875 10.1141C85.9497 10.3861 85.8271 10.6375 85.6388 10.8294L82.1373 14.3961C81.8554 14.6833 81.7268 15.0969 81.7933 15.5023L82.6199 20.5387C82.7316 21.219 82.2944 21.8651 81.6434 21.9818C81.3841 22.0282 81.1175 21.9841 80.8847 21.8562L76.5566 19.4783C76.2082 19.2869 75.7919 19.2869 75.4435 19.4783Z" fill="#F2994A"/>
<path fill-rule="evenodd" clip-rule="evenodd" d="M107.444 19.4783L103.115 21.8562C102.531 22.1774 101.808 21.9425 101.5 21.3316C101.378 21.0883 101.336 20.8096 101.38 20.5387L102.207 15.5023C102.273 15.0969 102.145 14.6833 101.863 14.3961L98.3613 10.8294C97.8883 10.3476 97.8786 9.55634 98.3397 9.06208C98.5233 8.86526 98.7638 8.73717 99.0241 8.69765L103.863 7.96285C104.253 7.9037 104.589 7.64804 104.764 7.27918L106.928 2.69694C107.22 2.07799 107.937 1.82386 108.529 2.12933C108.765 2.25097 108.956 2.45047 109.072 2.69694L111.237 7.27918C111.411 7.64804 111.747 7.9037 112.137 7.96285L116.976 8.69765C117.63 8.7969 118.083 9.43109 117.988 10.1141C117.95 10.3861 117.827 10.6375 117.639 10.8294L114.137 14.3961C113.855 14.6833 113.727 15.0969 113.793 15.5023L114.62 20.5387C114.732 21.219 114.294 21.8651 113.643 21.9818C113.384 22.0282 113.117 21.9841 112.885 21.8562L108.557 19.4783C108.208 19.2869 107.792 19.2869 107.444 19.4783Z" fill="#F2994A"/>
<path fill-rule="evenodd" clip-rule="evenodd" d="M139.444 19.4783L135.115 21.8562C134.531 22.1774 133.808 21.9425 133.5 21.3316C133.378 21.0883 133.336 20.8096 133.38 20.5387L134.207 15.5023C134.273 15.0969 134.145 14.6833 133.863 14.3961L130.361 10.8294C129.888 10.3476 129.879 9.55634 130.34 9.06208C130.523 8.86526 130.764 8.73717 131.024 8.69765L135.863 7.96285C136.253 7.9037 136.589 7.64804 136.764 7.27918L138.928 2.69694C139.22 2.07799 139.937 1.82386 140.529 2.12933C140.765 2.25097 140.956 2.45047 141.072 2.69694L143.237 7.27918C143.411 7.64804 143.747 7.9037 144.137 7.96285L148.976 8.69765C149.63 8.7969 150.083 9.43109 149.988 10.1141C149.95 10.3861 149.827 10.6375 149.639 10.8294L146.137 14.3961C145.855 14.6833 145.727 15.0969 145.793 15.5023L146.62 20.5387C146.732 21.219 146.294 21.8651 145.643 21.9818C145.384 22.0282 145.117 21.9841 144.885 21.8562L140.557 19.4783C140.208 19.2869 139.792 19.2869 139.444 19.4783Z" fill="#F2994A"/>
</svg>
